<?xml version="1.0" encoding="UTF-8" standalone="no"?>
<!-- Created with Inkscape (http://www.inkscape.org/) -->

<svg
   xmlns:dc="http://purl.org/dc/elements/1.1/"
   xmlns:cc="http://creativecommons.org/ns#"
   xmlns:rdf="http://www.w3.org/1999/02/22-rdf-syntax-ns#"
   xmlns:svg="http://www.w3.org/2000/svg"
   xmlns="http://www.w3.org/2000/svg"
   xmlns:sodipodi="http://sodipodi.sourceforge.net/DTD/sodipodi-0.dtd"
   xmlns:inkscape="http://www.inkscape.org/namespaces/inkscape"
   width="220.58763mm"
   height="220.2746mm"
   viewBox="0 0 220.58763 220.2746"
   version="1.1"
   id="svg8"
   inkscape:version="0.92.0 r15299"
   sodipodi:docname="telephone-icon.svg">
  <defs
     id="defs2" />
  <sodipodi:namedview
     id="base"
     pagecolor="#ffffff"
     bordercolor="#666666"
     borderopacity="1.0"
     inkscape:pageopacity="0.0"
     inkscape:pageshadow="2"
     inkscape:zoom="0.35"
     inkscape:cx="190.84535"
     inkscape:cy="222.07045"
     inkscape:document-units="mm"
     inkscape:current-layer="layer1"
     showgrid="false"
     fit-margin-top="0"
     fit-margin-left="0"
     fit-margin-right="0"
     fit-margin-bottom="0"
     inkscape:window-width="1366"
     inkscape:window-height="705"
     inkscape:window-x="-8"
     inkscape:window-y="-8"
     inkscape:window-maximized="1" />
  <metadata
     id="metadata5">
    <rdf:RDF>
      <cc:Work
         rdf:about="">
        <dc:format>image/svg+xml</dc:format>
        <dc:type
           rdf:resource="http://purl.org/dc/dcmitype/StillImage" />
        <dc:title></dc:title>
      </cc:Work>
    </rdf:RDF>
  </metadata>
  <g
     inkscape:label="Layer 1"
     inkscape:groupmode="layer"
     id="layer1"
     transform="translate(72.795094,12.685123)">
    <path
       style="fill:#000000;stroke-width:0.35277781"
       d="m 96.509924,207.4428 c -4.31414,-0.22083 -6.6877,-0.49419 -12.17084,-1.40172 -4.00206,-0.66239 -11.80481,-2.72524 -17.37048,-4.59231 -4.94897,-1.6602 -6.76306,-2.3507 -13.32119,-5.07045 -3.03533,-1.2588 -14.21731,-6.91192 -16.227774,-8.20405 -0.873125,-0.56117 -2.778125,-1.71124 -4.233329,-2.55572 -7.47854,-4.33991 -21.78205,-14.66433 -29.8097296,-21.51694 -4.46421,-3.81075 -16.6282404,-15.06264 -18.2274804,-16.86065 -0.51775,-0.5821 -3.05775,-3.2606 -5.64444,-5.95222 -19.96165,-20.77133 -33.48432,-38.80867 -41.74219,-55.678226 -2.26605,-4.629175 -4.84698,-10.815261 -5.88739,-14.111112 -1.58524,-5.021824 -2.89274,-10.300515 -3.70111,-14.942309 -0.87118,-5.002407 -0.96185,-6.344042 -0.96899,-14.338248 -0.012,-13.375605 1.41323,-20.59964 5.87412,-29.77491 3.14008,-6.4586112 6.38335,-10.8657069 12.23288,-16.6225986 5.43086,-5.344849 7.45818,-6.7614954 11.32154,-7.9112404 4.44464,-1.322734 10.4075,-0.384741 14.34352,2.2563174 1.20354,0.807575 9.69927,9.05918793 20.4252904,19.8383966 17.52893,17.615843 18.41597,18.5695 19.4924196,20.956409 2.18464,4.8442 2.16021,10.297774 -0.0677,15.119876 -1.4980396,3.242321 -1.4690096,3.2088 -11.9357396,13.78161 l -8.73586,8.824412 2.3162,4.228367 c 1.97077,3.597751 5.12244,8.825657 9.84664,16.333351 7.36933,11.711325 19.5079596,25.026535 32.0022216,35.104165 4.260661,3.43657 14.091861,10.27587 18.323001,12.74682 0.64918,0.37911 4.03239,2.3207 7.51823,4.31463 l 6.3379,3.62533 9.71349,-9.64129 c 8.85717,-8.79134 9.94674,-9.75487 12.35933,-10.92964 4.15243,-2.02197 8.12624,-2.49574 12.184906,-1.45272 4.83839,1.2434 4.61219,1.04941 25.05735,21.48914 17.42722,17.42258 19.16693,19.26713 20.148,21.36219 1.54578,3.30098 2.00297,5.60844 1.77444,8.95574 -0.20022,2.9327 -1.18399,5.99453 -2.76522,8.60627 -0.82591,1.36416 -11.86753,12.77688 -12.36142,12.77688 -0.1547,0 -1.59374,0.89006 -3.19786,1.97791 -5.97421,4.05147 -13.09887,6.99637 -20.31735,8.39795 -5.499,1.06771 -6.80036,1.1567 -12.585346,0.86059 z"
       id="path4496"
       inkscape:connector-curvature="0" />
  </g>
</svg>
