<?xml version="1.0" encoding="UTF-8" standalone="no"?>
<svg
   xmlns:dc="http://purl.org/dc/elements/1.1/"
   xmlns:cc="http://creativecommons.org/ns#"
   xmlns:rdf="http://www.w3.org/1999/02/22-rdf-syntax-ns#"
   xmlns:svg="http://www.w3.org/2000/svg"
   xmlns="http://www.w3.org/2000/svg"
   id="svg8"
   version="1.1"
   viewBox="0 0 199.12056 160.03265"
   height="160.03265mm"
   width="199.12056mm">
  <defs
     id="defs2" />
  <metadata
     id="metadata5">
    <rdf:RDF>
      <cc:Work
         rdf:about="">
        <dc:format>image/svg+xml</dc:format>
        <dc:type
           rdf:resource="http://purl.org/dc/dcmitype/StillImage" />
        <dc:title></dc:title>
      </cc:Work>
    </rdf:RDF>
  </metadata>
  <g
     transform="translate(-55.316406,9.3490626)"
     id="layer1">
    <path
       id="path4574"
       d="m 166.73008,126.96357 c -16.10503,0 -13.61331,2.27199 -13.61331,-16.13668 0,-11.65247 -1.28786,-19.075204 -5.20467,-26.708598 -2.98353,-5.81456 -9.52773,-14.174522 -14.54267,-18.577699 -5.01494,-4.403178 -13.50674,-9.224517 -18.87066,-10.714089 -5.36391,-1.489573 -14.39994,-2.663796 -20.080046,-2.609386 -5.68011,0.05441 -14.974835,1.773199 -20.654944,3.819528 -5.68011,2.046332 -8.920877,4.878028 -10.97294,3.759479 C 60.820019,58.72186 62.173091,51.411653 62.206968,41.116454 62.240848,30.821255 63.312369,17.898956 64.588132,12.400235 65.863895,6.9015138 67.954257,1.3560054 69.233379,0.07688261 70.512502,-1.2022399 87.533254,-4.1964816 107.05727,-6.5769877 c 25.34477,-3.0902126 36.73033,-3.5509983 39.80589,-1.6109874 2.36921,1.494463 7.25967,7.82581776 10.86768,14.0696774 3.60802,6.2438597 9.6685,18.3235157 13.46774,26.8436797 4.75854,10.671478 8.74982,16.013603 12.82849,17.170249 3.25642,0.923473 9.69676,1.794853 14.31184,1.936401 7.29786,0.22383 8.12381,1.287315 8.12381,-4.326422 0,-4.016241 1.7322,-8.420653 4.14007,-8.325557 3.38368,0.133635 3.60553,-1.51279 3.8728,-7.745605 0.28022,-6.534726 1.00406,-7.745604 6.45467,-7.745604 6.22296,0 6.45467,0.602435 6.45467,16.782143 0,16.782142 0,16.782142 7.56118,16.782142 4.15866,0 9.3413,1.78011 11.51699,3.955799 2.17569,2.175691 4.84619,8.275354 5.93445,13.554807 1.08825,5.279456 2.00527,18.893734 2.03782,30.253955 0.0591,20.62999 -1.51723,21.47662 -7.04096,21.4719 -4.84076,-0.004 -7.10014,-1.64243 -7.10014,-4.31966 0,-2.82514 -3.48175,-8.61838 -7.73723,-12.87385 -4.25547,-4.25548 -11.10616,-8.47717 -15.22375,-9.381544 -4.36365,-0.958418 -11.09827,-0.116417 -16.14505,2.018544 -4.76219,2.01458 -10.55433,5.85644 -12.87141,8.53747 -2.31709,2.68104 -5.00953,7.48875 -5.98319,10.68381 -1.54847,5.08126 -3.50374,5.80921 -15.60356,5.80921 z m 19.34496,-43.89176 c 2.78806,-0.02582 3.29411,-0.390926 3.31686,-7.678787 0.0228,-7.287861 -0.48795,-7.777396 -3.31686,-7.812422 -2.83539,-0.03511 -3.51731,0.566871 -3.51731,7.745605 0,7.178734 0.68183,7.771859 3.51731,7.745604 z m 17.42761,0 c 2.79558,-0.08989 3.22734,-0.33818 3.22734,-7.745604 0,-7.407424 -0.43176,-7.655711 -3.22734,-7.745605 -2.87858,-0.09256 -3.82869,0.321953 -3.82869,7.745605 0,7.423652 0.95011,7.838167 3.82869,7.745604 z m 16.13668,0 c 2.79946,0.05212 3.25003,-0.268445 3.25003,-7.745604 0,-7.477159 -0.45057,-7.797723 -3.25003,-7.745605 -2.75829,0.05135 -2.91596,0.57689 -2.91596,7.745605 0,7.168715 0.15767,7.694252 2.91596,7.745604 z M 106.03713,39.180053 c 7.7456,0 7.7456,0 7.7456,-15.491209 0,-15.4912081 0,-15.4912081 -7.7456,-15.4912081 -7.745604,0 -7.745604,0 -7.745604,15.4912081 0,15.491209 0,15.491209 7.745604,15.491209 z m 25.81868,0 c 7.74561,0 7.74561,0 7.74561,-15.491209 0,-15.4912081 0,-15.4912081 -7.74561,-15.4912081 -7.7456,0 -7.7456,0 -7.7456,15.4912081 0,15.491209 0,15.491209 7.7456,15.491209 z"
       style="fill:#fefefe;stroke-width:2.58186817" />
    <path
       id="path4542"
       d=""
       style="fill:#000000;stroke-width:2.58186817" />
    <path
       id="path4540"
       d=""
       style="fill:#000000;stroke-width:2.58186817" />
    <path
       id="path4538"
       d=""
       style="fill:#000000;stroke-width:2.58186817" />
    <path
       id="path4526"
       d=""
       style="fill:#000000;stroke-width:2.58186817" />
    <path
       id="path4524"
       d=""
       style="fill:#000000;stroke-width:2.58186817" />
    <path
       id="path4522"
       d=""
       style="fill:#000000;stroke-width:2.58186817" />
    <path
       id="path4520"
       d=""
       style="fill:#000000;stroke-width:2.58186817" />
    <path
       id="path4508"
       d=""
       style="fill:#000000;stroke-width:2.58186817" />
    <path
       id="path4498"
       d=""
       style="fill:#000000;stroke-width:2.58186817" />
    <path
       id="path4496"
       d=""
       style="fill:#000000;stroke-width:2.58186817" />
    <path
       id="path4585"
       d="m 211.47852,109.18555 c -11.40054,-1e-5 -20.75,9.34751 -20.75,20.74804 -1e-5,11.40055 9.34945,20.75001 20.75,20.75 11.40053,0 20.74805,-9.34946 20.74804,-20.75 0,-11.40053 -9.34751,-20.74804 -20.74804,-20.74804 z m 0,10 c 5.99613,0 10.74804,4.75191 10.74804,10.74804 0,5.99614 -4.75191,10.75 -10.74804,10.75 -5.99615,1e-5 -10.75001,-4.75386 -10.75,-10.75 0,-5.99613 4.75386,-10.74804 10.75,-10.74804 z"
       style="color:#000000;font-style:normal;font-variant:normal;font-weight:normal;font-stretch:normal;font-size:medium;line-height:normal;font-family:sans-serif;font-variant-ligatures:normal;font-variant-position:normal;font-variant-caps:normal;font-variant-numeric:normal;font-variant-alternates:normal;font-feature-settings:normal;text-indent:0;text-align:start;text-decoration:none;text-decoration-line:none;text-decoration-style:solid;text-decoration-color:#000000;letter-spacing:normal;word-spacing:normal;text-transform:none;writing-mode:lr-tb;direction:ltr;text-orientation:mixed;dominant-baseline:auto;baseline-shift:baseline;text-anchor:start;white-space:normal;shape-padding:0;clip-rule:nonzero;display:inline;overflow:visible;visibility:visible;opacity:1;isolation:auto;mix-blend-mode:normal;color-interpolation:sRGB;color-interpolation-filters:linearRGB;solid-color:#000000;solid-opacity:1;vector-effect:none;fill:#ffffff;fill-opacity:1;fill-rule:nonzero;stroke:none;stroke-width:10;stroke-linecap:butt;stroke-linejoin:miter;stroke-miterlimit:10;stroke-dasharray:none;stroke-dashoffset:0;stroke-opacity:1;color-rendering:auto;image-rendering:auto;shape-rendering:auto;text-rendering:auto;enable-background:accumulate" />
    <path
       id="path4596"
       d="m 96.751953,67.673828 c -22.75773,0 -41.435547,18.677817 -41.435547,41.435552 0,22.75773 18.677817,41.43554 41.435547,41.43554 22.757727,0 41.435547,-18.67781 41.435547,-41.43554 0,-22.757735 -18.67782,-41.435552 -41.435547,-41.435552 z m 0,21.400391 c 11.192307,0 20.035157,8.842844 20.035157,20.035161 0,11.19231 -8.84285,20.0371 -20.035157,20.0371 -11.192312,0 -20.037109,-8.84479 -20.037109,-20.0371 0,-11.192317 8.844797,-20.035161 20.037109,-20.035161 z"
       style="color:#000000;font-style:normal;font-variant:normal;font-weight:normal;font-stretch:normal;font-size:medium;line-height:normal;font-family:sans-serif;font-variant-ligatures:normal;font-variant-position:normal;font-variant-caps:normal;font-variant-numeric:normal;font-variant-alternates:normal;font-feature-settings:normal;text-indent:0;text-align:start;text-decoration:none;text-decoration-line:none;text-decoration-style:solid;text-decoration-color:#000000;letter-spacing:normal;word-spacing:normal;text-transform:none;writing-mode:lr-tb;direction:ltr;text-orientation:mixed;dominant-baseline:auto;baseline-shift:baseline;text-anchor:start;white-space:normal;shape-padding:0;clip-rule:nonzero;display:inline;overflow:visible;visibility:visible;opacity:1;isolation:auto;mix-blend-mode:normal;color-interpolation:sRGB;color-interpolation-filters:linearRGB;solid-color:#000000;solid-opacity:1;vector-effect:none;fill:#ffffff;fill-opacity:1;fill-rule:nonzero;stroke:none;stroke-width:21.39999962;stroke-linecap:butt;stroke-linejoin:miter;stroke-miterlimit:10;stroke-dasharray:none;stroke-dashoffset:0;stroke-opacity:1;color-rendering:auto;image-rendering:auto;shape-rendering:auto;text-rendering:auto;enable-background:accumulate" />
  </g>
</svg>
