<?xml version="1.0" encoding="UTF-8" standalone="no"?>
<svg
   xmlns:dc="http://purl.org/dc/elements/1.1/"
   xmlns:cc="http://creativecommons.org/ns#"
   xmlns:rdf="http://www.w3.org/1999/02/22-rdf-syntax-ns#"
   xmlns:svg="http://www.w3.org/2000/svg"
   xmlns="http://www.w3.org/2000/svg"
   id="svg8"
   version="1.1"
   viewBox="0 0 146.95831 146.11574"
   height="146.11574mm"
   width="146.95831mm">
  <defs
     id="defs2" />
  <metadata
     id="metadata5">
    <rdf:RDF>
      <cc:Work
         rdf:about="">
        <dc:format>image/svg+xml</dc:format>
        <dc:type
           rdf:resource="http://purl.org/dc/dcmitype/StillImage" />
        <dc:title></dc:title>
      </cc:Work>
    </rdf:RDF>
  </metadata>
  <g
     transform="translate(-14.967273,-42.240965)"
     id="layer1">
    <path
       id="path4496"
       d="m 86.554043,187.93659 c -0.48172,-0.2378 -3.74356,-2.77904 -7.24852,-5.64719 -4.76111,-3.89607 -6.52265,-5.17974 -6.96578,-5.07607 -0.32622,0.0763 -4.11519,0.8542 -8.41993,1.72862 -6.65277,1.35138 -7.993,1.5451 -8.93477,1.29151 -2.03368,-0.54761 -2.69329,-1.59755 -6.18835,-9.85041 l -3.25618,-7.6888 -6.64629,-1.92616 c -3.65545,-1.05939 -7.38109,-2.13985 -8.2792,-2.40103 -1.9161,-0.55722 -3.32376,-1.83848 -3.7471,-3.41065 -0.2096,-0.77837 -0.0978,-3.29761 0.41312,-9.30612 l 0.70052,-8.23884 -6.19933,-6.09906 c -3.40964,-3.35448 -6.33785,-6.38453 -6.50715,-6.73343 -0.1693,-0.34891 -0.30781,-1.27895 -0.30781,-2.06675 0,-1.51276 0.26946,-1.99286 7.33426,-13.06721 l 1.90703,-2.98936 -2.45118,-7.320958 c -1.34815,-4.02653 -2.57352,-7.85424 -2.72304,-8.50604 -0.3286,-1.43247 0.0449,-3.00923 0.95639,-4.03775 0.35197,-0.39715 3.9073,-2.602847 7.90074,-4.901539 l 7.26078,-4.179442 1.25609,-7.805314 c 0.69084,-4.292923 1.454,-8.363014 1.69591,-9.044646 0.61391,-1.729856 1.93336,-2.658914 4.21595,-2.968548 1.00948,-0.136937 5.01542,-0.341355 8.90207,-0.454262 l 7.06664,-0.205284 5.20246,-6.924405 c 3.21514,-4.279292 5.53041,-7.093991 6.06097,-7.368349 1.97319,-1.020378 3.08165,-0.707909 11.27026,3.177028 l 7.62382,3.616986 7.62383,-3.616986 c 8.188607,-3.884937 9.297067,-4.197406 11.270257,-3.177028 0.53055,0.274358 2.84583,3.089057 6.06096,7.368349 l 5.20247,6.924405 7.06664,0.205284 c 3.88666,0.112907 7.89259,0.317325 8.90207,0.454262 2.28259,0.309634 3.60205,1.238692 4.21595,2.968548 0.24191,0.681632 1.00507,4.755507 1.69592,9.053056 l 1.25608,7.813726 6.85648,3.948746 c 3.77107,2.171812 7.27321,4.275483 7.78253,4.674823 1.25129,0.9811 1.86284,2.80223 1.48889,4.43376 -0.15501,0.67631 -1.38487,4.52409 -2.73303,8.55062 l -2.45118,7.320958 1.90704,2.98936 c 7.06479,11.07435 7.33425,11.55445 7.33425,13.06721 0,0.7878 -0.13851,1.71784 -0.30781,2.06675 -0.16929,0.3489 -3.09751,3.37895 -6.50715,6.73343 l -6.19933,6.09906 0.70052,8.23884 c 0.51088,6.00851 0.62272,8.52775 0.41313,9.30612 -0.42335,1.57217 -1.831,2.85343 -3.74711,3.41065 -0.8981,0.26118 -4.62374,1.34164 -8.2792,2.40103 l -6.64628,1.92616 -3.25619,7.6888 c -3.49506,8.25286 -4.15466,9.3028 -6.18835,9.85041 -0.94177,0.25359 -2.28199,0.0599 -8.93477,-1.29151 -4.30474,-0.87442 -8.09371,-1.6523 -8.41993,-1.72862 -0.44315,-0.10367 -2.20559,1.18089 -6.970357,5.08036 -3.50747,2.87051 -6.78906,5.41472 -7.29242,5.6538 -1.15698,0.54953 -2.60956,0.54529 -3.73629,-0.0109 z m 0.67029,-39.2529 c 0.68562,-0.39068 1.64548,-1.25704 2.13303,-1.92524 0.48754,-0.6682 8.19299,-12.15738 17.123207,-25.53151 15.91116,-23.828958 16.23677,-24.344998 16.23677,-25.732838 0,-2.08606 -0.76855,-2.96427 -5.32667,-6.08664 -3.13446,-2.14715 -4.29272,-2.78434 -5.25926,-2.89329 -2.67029,-0.30098 -2.09023,-1.02264 -16.473407,20.494848 l -13.12363,19.63319 -8.00776,-8.17924 c -4.40427,-4.49858 -8.37568,-8.31614 -8.82535,-8.48348 -1.1292,-0.42019 -2.40466,-0.38049 -3.33548,0.10381 -0.43135,0.22444 -2.42881,2.08683 -4.43881,4.13865 -3.96268,4.04514 -4.31416,4.69042 -3.73214,6.85187 0.26146,0.971 2.28727,3.16249 12.727,13.76796 6.82882,6.93722 12.89567,12.9544 13.48189,13.3715 1.27588,0.9078 3.49876,1.53651 4.70274,1.33011 0.47921,-0.0822 1.43226,-0.46902 2.11787,-0.8597 z"
       style="fill:#ffffff;fill-opacity:1;stroke-width:0.29043144" />
  </g>
</svg>
